<svg xmlns="http://www.w3.org/2000/svg" xmlns:xlink="http://www.w3.org/1999/xlink" version="1.0" x="0px" y="0px" viewBox="0 0 100 125" enable-background="new 0 0 100 100" xml:space="preserve"><g><g><path d="M26.1118164,40.7070312c-2.9838867,0-4.8881836,4.046875-4.8881836,6.8325195    c0,2.5308228,1.5560303,4.3876343,3.8881836,4.7994385V69c0,0.5522461,0.4477539,1,1,1s1-0.4477539,1-1V52.3389893    C29.4439697,51.9271851,31,50.0703735,31,47.5395508C31,44.7539062,29.0957031,40.7070312,26.1118164,40.7070312z     M26.1118164,50.4277344c-1.3959961,0-2.8881836-0.7587891-2.8881836-2.8881836    c0-2.2128906,1.5654297-4.8325195,2.8881836-4.8325195S29,45.3266602,29,47.5395508    C29,49.6689453,27.5078125,50.4277344,26.1118164,50.4277344z"/><path d="M72,42.0810547c-0.5522461,0-1,0.4477539-1,1V69c0,0.5522461,0.4477539,1,1,1s1-0.4477539,1-1V43.0810547    C73,42.5288086,72.5522461,42.0810547,72,42.0810547z"/><path d="M77,42.0810547c-0.5522461,0-1,0.4477539-1,1V69c0,0.5522461,0.4477539,1,1,1s1-0.4477539,1-1V43.0810547    C78,42.5288086,77.5522461,42.0810547,77,42.0810547z"/><path d="M51,28.1503906c-8.2709961,0-15,6.7290039-15,15V69c0,0.5522461,0.4477539,1,1,1s1-0.4477539,1-1V43.1503906    c0-7.168457,5.831543-13,13-13s13,5.831543,13,13V69c0,0.5522461,0.4477539,1,1,1s1-0.4477539,1-1V43.1503906    C66,34.8793945,59.2709961,28.1503906,51,28.1503906z"/><path d="M50,43c-0.5522461,0-1,0.4477539-1,1v7c0,0.5522461,0.4477539,1,1,1h5.1665039c0.5522461,0,1-0.4477539,1-1    s-0.4477539-1-1-1H51v-6C51,43.4477539,50.5522461,43,50,43z"/><path d="M59,55H44c-0.5522461,0-1,0.4477539-1,1s0.4477539,1,1,1h3.0380859    c-0.0405273,1.6103516,0.0898438,3.5639648,0.9169922,5.0600586c0.7133789,1.2919922,1.9785156,1.6943359,3.2270508,1.0249023    c0.6699219-0.3603516,1.0834961-0.8955078,1.4482422-1.3676758C53.1123047,61.0932617,53.3193359,60.875,53.75,60.875    c0.2050781,0,0.2573242,0.0537109,0.2797852,0.0766602c0.3671875,0.3759766,0.3310547,1.90625,0.3076172,2.9194336    c-0.0410156,1.7407227-0.0795898,3.3852539,0.90625,4.3198242c0.5014648,0.4750977,1.1420898,0.722168,1.8066406,0.722168    c0.3710938,0,0.7495117-0.0766602,1.1157227-0.234375C59.2626953,68.2070312,60,67.1303711,60,66V56    C60,55.4477539,59.5522461,55,59,55z M58,66c0,0.3935547-0.3237305,0.7124023-0.6240234,0.8413086    c-0.2041016,0.0878906-0.5004883,0.1411133-0.7563477-0.1015625c-0.3413086-0.3237305-0.3061523-1.8271484-0.2827148-2.8222656    c0.0385742-1.6640625,0.0791016-3.3852539-0.8764648-4.3632812C55.1577148,59.2441406,54.6152344,58.875,53.75,58.875    c-1.4511719,0-2.1743164,0.9360352-2.7021484,1.6196289c-0.277832,0.359375-0.5180664,0.6704102-0.8129883,0.8286133    c-0.2333984,0.1254883-0.3105469,0.1660156-0.5292969-0.2304688C49.2119141,60.199707,48.9926758,58.8554688,49.0405273,57H58V66z    "/><circle cx="43.5" cy="44.5" r="1.5"/><circle cx="57.5" cy="44.5" r="1.5"/></g></g></svg>
